<svg xmlns="http://www.w3.org/2000/svg" xmlns:xlink="http://www.w3.org/1999/xlink" width="3000" zoomAndPan="magnify" viewBox="0 0 2250 2250.000011" height="3000" preserveAspectRatio="xMidYMid meet" version="1.0"><defs><clipPath id="d792fc351e"><path d="M 101 300 L 2185 300 L 2185 2028 L 101 2028 Z M 101 300 " clip-rule="nonzero"/></clipPath><clipPath id="b7553e5335"><path d="M 2134.304688 1447.277344 C 1937.25 1536.902344 1709.503906 1579.796875 1503.132812 1646.644531 C 1275.199219 1720.46875 1049.09375 1800.074219 823.707031 1881.339844 C 745.117188 1909.617188 666.667969 1938.207031 588.304688 1967.085938 C 557.496094 1978.445312 510.617188 2007.273438 475.929688 2004.035156 C 420.875 1998.84375 413.175781 1886.792969 402.761719 1848.542969 C 368.414062 1722.21875 332.269531 1596.375 292.5625 1471.625 C 256.363281 1357.984375 220.144531 1244.332031 183.949219 1130.714844 C 168.539062 1082.390625 75.453125 899.722656 156.722656 873.847656 C 261.070312 840.613281 365.421875 807.414062 469.699219 774.183594 C 914.601562 632.527344 1359.308594 491.378906 1794.792969 322.414062 C 1874.71875 291.4375 1900.289062 540.660156 1910.324219 578.875 C 1941.59375 698.007812 1976.605469 815.988281 2014.003906 933.328125 C 2046.515625 1035.328125 2078.992188 1137.332031 2111.480469 1239.320312 C 2124.238281 1279.382812 2195.851562 1419.285156 2134.292969 1447.273438 M 137.0625 856.820312 C 43.355469 899.445312 160.039062 1130.289062 179.683594 1191.992188 C 217.359375 1310.273438 255.976562 1428.332031 292.363281 1547.039062 C 328.210938 1663.929688 361.386719 1781.589844 392.980469 1899.710938 C 407.328125 1953.402344 421.398438 2053.019531 504.609375 2022.167969 C 642.351562 1971.074219 780.402344 1920.707031 918.773438 1871.3125 C 1251.378906 1752.425781 1586.691406 1643.695312 1923.53125 1537.664062 C 1983.765625 1518.730469 2214.042969 1486.695312 2180.863281 1382.5625 C 2143.808594 1266.242188 2106.753906 1149.925781 2069.667969 1033.609375 C 1998.125 809.050781 1930.636719 583.722656 1877.902344 353.773438 C 1853.515625 247.375 1716.539062 328.054688 1658.441406 349.75 C 1489.671875 412.898438 1320.066406 473.78125 1149.414062 531.574219 C 964.390625 594.25 777.738281 652.136719 591.589844 711.464844 C 443.457031 758.664062 278.808594 792.316406 137.035156 856.789062 " clip-rule="nonzero"/></clipPath></defs><path fill="#fffff7" d="M 2005.4375 868.816406 C 2045.835938 995.800781 2086.234375 1122.785156 2126.667969 1249.769531 C 2140.988281 1294.691406 2201.171875 1407.351562 2152.894531 1448.707031 C 2125.871094 1471.851562 2074.261719 1478.089844 2042.109375 1488.121094 C 1937.839844 1520.644531 1833.644531 1553.46875 1729.507812 1586.394531 C 1323.261719 1714.949219 921.195312 1855.335938 521.828125 2003.859375 C 482.097656 2018.636719 436.21875 2020.308594 422.765625 1968.261719 C 397.742188 1871.511719 371.113281 1775.097656 343.367188 1679.101562 C 273.707031 1438.25 194.074219 1200.1875 117.992188 961.308594 C 77.242188 833.460938 327.925781 807.390625 411.691406 780.730469 C 693.242188 691.085938 975.859375 604.351562 1255.042969 507.554688 C 1434.824219 445.199219 1613.777344 380.3125 1791.234375 311.671875 C 1867.695312 282.066406 1876.863281 399.480469 1887.648438 443.351562 C 1922.652344 586.25 1960.796875 728.613281 2005.4375 868.820312 " fill-opacity="1" fill-rule="nonzero"/><g clip-path="url(#d792fc351e)"><g clip-path="url(#b7553e5335)"><path fill="#ffffff" d="M -894.308594 666.691406 L 1709.957031 -497.914062 L 3151.710938 1633.703125 L 547.445312 2798.308594 Z M -894.308594 666.691406 " fill-opacity="1" fill-rule="nonzero"/></g></g><path fill="#e6e6e6" d="M 1943.867188 953.9375 C 1980.828125 1069.988281 2017.785156 1185.984375 2054.796875 1302 C 2070.40625 1351.03125 2082.460938 1397.238281 2020.789062 1416.457031 C 1819.164062 1479.238281 1617.796875 1542.824219 1416.566406 1606.851562 C 1182.859375 1681.25 952.023438 1764.0625 722.609375 1850.710938 C 667.289062 1871.644531 612.0625 1892.691406 556.96875 1914.207031 C 490.90625 1939.957031 480.175781 1868.082031 468.621094 1823.292969 C 403.59375 1571.75 322.652344 1325.183594 243.761719 1077.769531 C 230.53125 1036.214844 176.796875 934.675781 245.507812 912.757812 C 291.40625 882.054688 372.605469 872.3125 424.585938 855.773438 C 866.234375 715.132812 1307.121094 574.15625 1739.679688 407.183594 C 1813.097656 378.863281 1822.101562 509.953125 1831.988281 549.921875 C 1865.546875 685.554688 1901.464844 820.769531 1943.851562 953.9375 " fill-opacity="1" fill-rule="nonzero"/><path fill="#cfcaba" d="M 1778.574219 479.503906 C 1788.550781 511.574219 1740.085938 595.121094 1729.019531 623.613281 C 1688.59375 727.34375 1644.660156 829.777344 1597.613281 930.695312 C 1545.46875 1042.480469 1489.738281 1153.238281 1424.433594 1257.972656 C 1378.226562 1332.058594 1321.648438 1426.65625 1240.589844 1467.484375 C 1173.363281 1501.367188 1081.628906 1465.128906 1017.199219 1440.941406 C 898.070312 1396.191406 784.855469 1335.179688 674.703125 1271.898438 C 575.214844 1214.714844 477.664062 1153.964844 382.386719 1089.984375 C 373.523438 1083.988281 255.4375 993.058594 253.222656 994.355469 C 265.460938 987.289062 316.34375 1015.109375 327.453125 1019.429688 C 390.945312 1043.871094 454.3125 1068.636719 518.289062 1091.917969 C 668.480469 1146.632812 824.566406 1201.035156 984.164062 1219.15625 C 1176.996094 1241.015625 1283.941406 1119.269531 1401.558594 979.179688 C 1486.769531 877.695312 1565.417969 770.878906 1642.449219 663.121094 C 1654.886719 645.75 1783.75 494.5625 1778.578125 479.507812 " fill-opacity="1" fill-rule="nonzero"/><path fill="#ffffd9" d="M 1777.675781 479.167969 C 1778.40625 479.050781 1778.40625 479.050781 1777.675781 479.167969 M 1777.457031 479.203125 C 1766.933594 489.292969 1757.710938 500.488281 1749.773438 512.761719 C 1757.710938 500.472656 1766.933594 489.292969 1777.457031 479.203125 M 253.351562 994.273438 C 253.058594 994.488281 253.058594 994.488281 253.351562 994.273438 " fill-opacity="1" fill-rule="nonzero"/><path fill="#d7cca4" d="M 1749.722656 512.75 C 1747.1875 516.261719 1744.628906 519.742188 1742.078125 523.257812 C 1744.632812 519.742188 1747.1875 516.261719 1749.722656 512.75 M 1777.421875 479.191406 C 1777.726562 479.132812 1777.726562 479.132812 1777.421875 479.191406 M 253.152344 995.5 C 253.214844 995.632812 253.214844 995.632812 253.152344 995.5 M 253.320312 994.261719 C 261.65625 996.789062 293.683594 1000.707031 296.867188 1007.734375 C 292.34375 1006.0625 260.960938 990.800781 253.320312 994.261719 " fill-opacity="1" fill-rule="nonzero"/><path fill="#857d63" d="M 252.996094 995.109375 C 263.679688 1037.472656 387.089844 1060.585938 422.367188 1072.558594 C 532.957031 1110.113281 641.441406 1153.484375 752.332031 1190.148438 C 877.210938 1231.480469 1075.632812 1313.851562 1202.476562 1225.203125 C 1337.980469 1130.414062 1437.917969 974.527344 1533.871094 842.96875 C 1581.765625 777.320312 1628.683594 710.976562 1677.476562 645.988281 C 1703.757812 611.019531 1792.132812 527.164062 1778.609375 479.5 C 1782.605469 492.3125 1683.453125 605.558594 1671.976562 621.742188 C 1619.703125 695.359375 1566.910156 768.660156 1512.132812 840.460938 C 1417.484375 964.527344 1303.679688 1138.570312 1156.359375 1205.597656 C 1023.667969 1264.609375 830.765625 1193.9375 702.136719 1154.226562 C 612.074219 1126.421875 523.335938 1094.457031 435.234375 1060.949219 C 415.933594 1053.589844 257.425781 1009.355469 252.992188 995.121094 " fill-opacity="1" fill-rule="nonzero"/><path fill="#ded3ab" d="M 1742.101562 523.261719 C 1581.867188 744.992188 1424.15625 1030.71875 1192.085938 1185.269531 C 1424.496094 1030.488281 1581.238281 744.949219 1742.101562 523.261719 M 296.847656 1007.71875 C 431.492188 1058.089844 564.671875 1111.773438 702.171875 1154.191406 C 829.753906 1193.601562 1014.863281 1260.832031 1147.785156 1209.191406 C 1014.878906 1260.8125 829.824219 1193.59375 702.242188 1154.203125 C 618.855469 1128.46875 536.605469 1099.152344 454.945312 1068.355469 C 410.722656 1051.6875 344.246094 1009.484375 296.847656 1007.71875 " fill-opacity="1" fill-rule="nonzero"/><path fill="#d6cba3" d="M 1777.460938 479.203125 C 1762.121094 486.195312 1751.886719 509.851562 1742.136719 523.265625 C 1743.210938 522.15625 1777.449219 479.238281 1777.460938 479.203125 M 253.359375 994.269531 C 250.328125 995.65625 299.230469 1008.160156 296.851562 1007.714844 C 292.382812 1006.070312 260.980469 990.8125 253.359375 994.269531 " fill-opacity="1" fill-rule="nonzero"/><path fill="#ffffe6" d="M 489.738281 1895.847656 C 485.390625 1903.671875 483.960938 1911.742188 485.523438 1920.152344 C 516.847656 1938.707031 486.027344 1890.058594 489.738281 1895.847656 " fill-opacity="1" fill-rule="nonzero"/><path fill="#fffff0" d="M 806.417969 1344.269531 C 771.550781 1410.328125 457.992188 1872.402344 500.003906 1907.527344 C 630.203125 1744.183594 734.703125 1541.613281 832.523438 1357.714844 C 823.808594 1353.207031 815.109375 1348.726562 806.414062 1344.269531 " fill-opacity="1" fill-rule="nonzero"/><path fill="#fef3cb" d="M 876.058594 1227.714844 C 841.121094 1256.925781 827.003906 1305.082031 806.390625 1344.238281 C 850.914062 1367.5 857.09375 1312.269531 873.457031 1274.617188 C 880.84375 1257.621094 898.398438 1233.769531 876.054688 1227.714844 " fill-opacity="1" fill-rule="nonzero"/><path fill="#eadfb7" d="M 881.867188 1223.832031 C 872.289062 1228.1875 874.390625 1230.550781 888.175781 1230.949219 C 889.164062 1224.347656 887.042969 1221.96875 881.867188 1223.832031 " fill-opacity="1" fill-rule="nonzero"/><path fill="#fffad2" d="M 477.832031 1859.253906 C 478.8125 1857.429688 448.460938 1909.535156 455.734375 1913.894531 C 475.617188 1925.679688 480.796875 1871.089844 477.832031 1859.253906 " fill-opacity="1" fill-rule="nonzero"/><path fill="#c7c7c7" d="M 784.347656 1332.601562 C 727.375 1436.25 666.320312 1537.40625 605.683594 1638.894531 C 572.371094 1694.585938 466.996094 1817.4375 483.726562 1882.863281 C 525.234375 1823.59375 779.3125 1329.925781 784.347656 1332.609375 " fill-opacity="1" fill-rule="nonzero"/><path fill="#857d63" d="M 849.527344 1220.351562 C 821.308594 1250.546875 803.953125 1296.964844 784.328125 1332.628906 C 802.691406 1342.425781 876.726562 1228.210938 849.527344 1220.351562 " fill-opacity="1" fill-rule="nonzero"/><path fill="#857d63" d="M 853.746094 1216.992188 C 838.964844 1223.695312 866.109375 1211.363281 853.746094 1216.992188 " fill-opacity="1" fill-rule="nonzero"/><path fill="#c7c7c7" d="M 793.8125 1337.59375 C 689.023438 1497.511719 590.523438 1664.558594 512.660156 1839.390625 C 615.972656 1678.480469 717.238281 1513.378906 806.425781 1344.230469 C 802.230469 1342.011719 798.007812 1339.816406 793.816406 1337.597656 " fill-opacity="1" fill-rule="nonzero"/><path fill="#857d63" d="M 846.449219 1261.632812 C 827.835938 1286.210938 810.644531 1311.835938 793.773438 1337.59375 C 817.835938 1350.304688 836.96875 1284.226562 846.449219 1261.632812 " fill-opacity="1" fill-rule="nonzero"/><path fill="#ffffe6" d="M 2070.769531 1353.902344 C 2071.160156 1356.210938 2085.53125 1398.339844 2095.59375 1375.320312 C 2090.0625 1365.449219 2081.785156 1358.296875 2070.769531 1353.902344 " fill-opacity="1" fill-rule="nonzero"/><path fill="#fffff0" d="M 1506.6875 1114.125 C 1502.957031 1121.101562 1499.191406 1128.082031 1495.460938 1135.058594 C 1677.328125 1224.007812 1872.992188 1323.679688 2070.292969 1373.40625 C 2078.792969 1333.292969 1873.445312 1277.066406 1838.578125 1262.609375 C 1726.738281 1216.101562 1615.417969 1167.480469 1506.664062 1114.125 " fill-opacity="1" fill-rule="nonzero"/><path fill="#fef3cb" d="M 1377.667969 1059.875 C 1394.917969 1052.023438 1473.433594 1176.710938 1506.726562 1114.109375 C 1480.949219 1101.496094 1409.089844 1045.601562 1377.667969 1059.875 " fill-opacity="1" fill-rule="nonzero"/><path fill="#ffffe1" d="M 1616.59375 1137.632812 C 1683.621094 1168.226562 1751.007812 1197.980469 1818.914062 1226.554688 C 1751.984375 1195.726562 1684.640625 1165.828125 1616.59375 1137.632812 " fill-opacity="1" fill-rule="nonzero"/><path fill="#fdf0c8" d="M 1518.25 1092.117188 C 1513.675781 1100.894531 1602.847656 1131.894531 1616.613281 1137.597656 C 1583.753906 1122.625 1551.007812 1107.363281 1518.25 1092.117188 " fill-opacity="1" fill-rule="nonzero"/><path fill="#857d63" d="M 1390.253906 1040.226562 C 1391.496094 1039.671875 1505.042969 1117.503906 1518.261719 1092.140625 C 1497.519531 1082.496094 1415.574219 1028.6875 1390.253906 1040.226562 " fill-opacity="1" fill-rule="nonzero"/><path fill="#fffad2" d="M 2063.09375 1328.304688 C 2067.003906 1340.507812 2098.179688 1379.597656 2108.832031 1355.25 C 2112.144531 1347.617188 2061.226562 1327.453125 2063.09375 1328.304688 " fill-opacity="1" fill-rule="nonzero"/><path fill="#c7c7c7" d="M 1818.910156 1226.53125 C 1899.613281 1263.734375 1985.027344 1324.824219 2069.84375 1349.574219 C 2054.398438 1291.410156 1871.742188 1248.859375 1818.910156 1226.53125 " fill-opacity="1" fill-rule="nonzero"/><path fill="#c7c7c7" d="M 1515.410156 1097.589844 C 1512.5 1103.097656 1509.570312 1108.628906 1506.691406 1114.132812 C 1683.976562 1201.09375 1868.792969 1286.699219 2057.535156 1345.878906 C 1888.207031 1246.457031 1699.238281 1166.15625 1515.410156 1097.589844 " fill-opacity="1" fill-rule="nonzero"/><path fill="#857d63" d="M 1412.710938 1063.824219 C 1438.9375 1080.398438 1499.15625 1128.609375 1515.410156 1097.570312 C 1481.710938 1084.976562 1447.625 1072.539062 1412.710938 1063.824219 " fill-opacity="1" fill-rule="nonzero"/></svg>